<?xml version="1.0" encoding="iso-8859-1"?>
<!-- Generator: Adobe Illustrator 19.0.0, SVG Export Plug-In . SVG Version: 6.00 Build 0)  -->
<svg version="1.1" id="Capa_1" xmlns="http://www.w3.org/2000/svg" xmlns:xlink="http://www.w3.org/1999/xlink" x="0px" y="0px"
	 viewBox="0 0 512 512" style="enable-background:new 0 0 512 512;" xml:space="preserve">
<circle style="fill:#303F9E;" cx="256" cy="256" r="256"/>
<path style="fill:#283592;" d="M506.385,309.495L446,249.11l-6.616,3.775L407.999,221.5l-0.944,19.391L295.624,129.46l-11.411,4.455
	l-46.609-46.609l3.329,80.877l-81.58-81.58L95.867,217.494l22.028,176.17l117.51,117.51C242.2,511.715,249.066,512,256,512
	C379.037,512,481.784,425.197,506.385,309.495z"/>
<path style="fill:#FED500;" d="M328.75,378.25c-107.696,0-195-87.304-195-195c0-35.167,9.314-68.157,25.603-96.646
	C100.599,120.197,61,183.472,61,256c0,107.696,87.304,195,195,195c72.528,0,135.804-39.599,169.398-98.353
	C396.908,368.936,363.917,378.25,328.75,378.25z"/>
<path style="fill:#FABF2D;" d="M328.75,378.25c-61.358,0-116.087-28.348-151.832-72.652l-72.75,72.75
	C139.913,422.651,194.641,451,256,451c72.528,0,135.804-39.599,169.398-98.353C396.908,368.936,363.917,378.25,328.75,378.25z"/>
<polygon style="fill:#FFFFFF;" points="237.604,87.307 255.533,123.635 295.624,129.46 266.614,157.738 273.462,197.667 
	237.604,178.815 201.746,197.667 208.594,157.738 179.584,129.46 219.675,123.635 "/>
<polygon style="fill:#E6E6E6;" points="237.604,178.815 273.462,197.667 266.614,157.738 295.624,129.46 255.533,123.635 
	237.604,87.307 "/>
<polygon style="fill:#FFFFFF;" points="407.998,221.5 419.742,245.294 446,249.11 426.999,267.631 431.485,293.783 407.998,281.436 
	384.512,293.783 388.998,267.631 369.997,249.11 396.255,245.294 "/>
<polygon style="fill:#E6E6E6;" points="407.999,281.436 431.485,293.783 426.999,267.631 446,249.11 419.741,245.294 407.999,221.5 
	"/>
<polygon style="fill:#FFFFFF;" points="265.44,267.571 273.957,284.828 293.002,287.595 279.221,301.028 282.474,319.996 
	265.44,311.041 248.406,319.996 251.659,301.028 237.879,287.595 256.923,284.828 "/>
<polygon style="fill:#E6E6E6;" points="265.44,311.041 282.474,319.996 279.221,301.028 293.001,287.595 273.957,284.828 
	265.44,267.571 "/>
<g>
</g>
<g>
</g>
<g>
</g>
<g>
</g>
<g>
</g>
<g>
</g>
<g>
</g>
<g>
</g>
<g>
</g>
<g>
</g>
<g>
</g>
<g>
</g>
<g>
</g>
<g>
</g>
<g>
</g>
</svg>
